<svg width="18" height="14" viewBox="0 0 18 14" fill="none" xmlns="http://www.w3.org/2000/svg">
<path d="M15.2124 1.13987C14.0325 0.599693 12.7869 0.216473 11.5075 0C11.3324 0.312989 11.1739 0.635012 11.0329 0.964723C9.66998 0.759351 8.28401 0.759351 6.92113 0.964723C6.77997 0.635046 6.62155 0.313026 6.44654 0C5.16625 0.218301 3.91985 0.602431 2.73878 1.1427C0.394068 4.61174 -0.241547 7.99463 0.0762603 11.3295C1.44938 12.344 2.9863 13.1156 4.6202 13.6106C4.98811 13.1158 5.31366 12.5909 5.5934 12.0414C5.06208 11.8429 4.54925 11.5981 4.06086 11.3097C4.1894 11.2165 4.31511 11.1204 4.43658 11.0272C5.85767 11.6955 7.40872 12.042 8.97911 12.042C10.5495 12.042 12.1006 11.6955 13.5216 11.0272C13.6445 11.1275 13.7702 11.2236 13.8974 11.3097C13.408 11.5986 12.8943 11.8439 12.362 12.0428C12.6414 12.592 12.967 13.1165 13.3352 13.6106C14.9705 13.1176 16.5086 12.3464 17.882 11.3309C18.2549 7.46354 17.2449 4.11173 15.2124 1.13987ZM5.99596 9.27857C5.11033 9.27857 4.37867 8.47487 4.37867 7.48614C4.37867 6.4974 5.08491 5.68664 5.99313 5.68664C6.90136 5.68664 7.62737 6.4974 7.61183 7.48614C7.5963 8.47487 6.89853 9.27857 5.99596 9.27857ZM11.9623 9.27857C11.0752 9.27857 10.3464 8.47487 10.3464 7.48614C10.3464 6.4974 11.0526 5.68664 11.9623 5.68664C12.8719 5.68664 13.5923 6.4974 13.5767 7.48614C13.5612 8.47487 12.8648 9.27857 11.9623 9.27857Z" fill="white" fill-opacity="0.3"/>
</svg>
