<svg width="43" height="43" viewBox="0 0 43 43" fill="none" xmlns="http://www.w3.org/2000/svg">
<rect width="43" height="43" rx="7" fill="#2E2841"/>
<path d="M29.0589 10H12.9411C11.32 10 10 11.32 10 12.9411V29.0589C10 30.68 11.32 32 12.9411 32H29.0589C30.68 32 32 30.68 32 29.0589V12.9411C32 11.32 30.68 10 29.0589 10ZM12.9411 11.6442H29.0589C29.7768 11.6442 30.3558 12.2231 30.3558 12.941V21.5326L26.6273 16.8315C26.1873 16.2526 25.3074 16.2526 24.8674 16.8315L19.4253 23.7094L17.1558 21.2315C16.6926 20.7221 15.8821 20.7221 15.4189 21.2315L11.6442 25.3305V12.941C11.6443 12.2232 12.2232 11.6443 12.9411 11.6443L12.9411 11.6442Z" fill="#A887E4"/>
<path d="M17.5263 15.6737C17.5263 16.6969 16.6969 17.5263 15.6737 17.5263C14.6505 17.5263 13.821 16.6969 13.821 15.6737C13.821 14.6505 14.6505 13.821 15.6737 13.821C16.6969 13.821 17.5263 14.6505 17.5263 15.6737Z" fill="#A887E4"/>
</svg>
