<svg width="13" height="13" viewBox="0 0 13 13" fill="none" xmlns="http://www.w3.org/2000/svg">
<path fill-rule="evenodd" clip-rule="evenodd" d="M10.2449 8.4454L10.9796 11.1373C11.0272 11.4373 10.9911 11.7451 10.8753 12.0244C10.7595 12.3038 10.569 12.5431 10.3262 12.7142C10.0751 12.8897 9.78129 12.9883 9.47843 12.9987C9.18712 13.0109 8.89848 12.9365 8.6467 12.7844L6.62682 11.183C6.59068 11.1544 6.54652 11.1388 6.50101 11.1386C6.45551 11.1385 6.41123 11.1536 6.37482 11.1819L4.33039 12.7645C3.94857 13.0016 3.4861 13.0556 3.06285 12.9124C2.63961 12.7692 2.2972 12.443 2.12445 12.0183C2.00918 11.736 1.97394 11.4256 2.02285 11.1233L2.7252 8.45936C2.74003 8.41596 2.74109 8.36881 2.72832 8.32472C2.7155 8.28063 2.68945 8.2419 2.65399 8.21414L0.502487 6.52809H0.502432C0.210835 6.25309 0.0323875 5.87265 0.00400726 5.46536C-0.0244329 5.05809 0.0993096 4.65508 0.349752 4.33951C0.600135 4.02394 0.958028 3.81998 1.34956 3.7696L4.02198 3.72938H4.02204C4.06676 3.73065 4.11076 3.71703 4.14745 3.69048C4.1842 3.66387 4.21169 3.62584 4.22586 3.58186L5.0906 0.924095H5.09065C5.21601 0.650015 5.41454 0.418825 5.6628 0.257799C5.91719 0.0902572 6.2123 0.000857175 6.51388 2.60075e-07C6.8067 -0.000172881 7.0935 0.086107 7.34064 0.248683C7.58779 0.411261 7.78503 0.643381 7.90916 0.91786L8.74859 3.58006C8.76209 3.62306 8.78824 3.66063 8.82343 3.6874C8.85862 3.71418 8.90105 3.72884 8.94477 3.72936L11.6515 3.76976H11.6514C12.0432 3.8206 12.4012 4.02525 12.6513 4.34135C12.9015 4.6575 13.0248 5.06103 12.9958 5.46854C12.9668 5.8761 12.7877 6.25654 12.4955 6.53132L10.3321 8.20555C10.2947 8.23071 10.2661 8.26754 10.2504 8.31076C10.2347 8.35393 10.2327 8.40114 10.2447 8.44558L10.2449 8.4454Z" fill="white" fill-opacity="0.3"/>
</svg>
