<svg width="29" height="29" viewBox="0 0 29 29" fill="none" xmlns="http://www.w3.org/2000/svg">
<g clip-path="url(#clip0_94_1643)">
<path d="M14.5 0.579956C6.82444 0.579956 0.580017 6.82438 0.580017 14.5C0.580017 22.1755 6.82444 28.42 14.5 28.42C22.1756 28.42 28.42 22.1755 28.42 14.5C28.42 6.82438 22.1756 0.579956 14.5 0.579956ZM8.55333 14.295L14.2951 8.55326C14.369 8.47963 14.4555 8.46859 14.5001 8.46859C14.5448 8.46859 14.6312 8.47963 14.7052 8.55326L20.4469 14.2953C20.5208 14.3689 20.5319 14.4554 20.5319 14.5003C20.5319 14.5452 20.5208 14.6314 20.4469 14.7053L14.7052 20.4466C14.6312 20.5203 14.5448 20.5313 14.5001 20.5313C14.4555 20.5313 14.369 20.5203 14.2951 20.4466L8.55333 14.7046C8.47941 14.631 8.46837 14.5445 8.46837 14.4996C8.46837 14.4547 8.47941 14.3688 8.55342 14.2949L8.55333 14.295Z" fill="#799CEE"/>
</g>
<defs>
<clipPath id="clip0_94_1643">
<rect width="29" height="29" fill="white"/>
</clipPath>
</defs>
</svg>
