<svg width="23" height="27" viewBox="0 0 23 27" fill="none" xmlns="http://www.w3.org/2000/svg">
<g id="Group 427319690">
<g id="Group">
<path id="Vector" d="M2.9425 0C1.31991 0 0 1.32046 0 2.94299V23.0771C0 24.6997 1.31999 26.0201 2.9425 26.0201H20.0573C21.6799 26.0201 23 24.6996 23 23.0771V2.94299C23 1.32041 21.68 0 20.0575 0H2.9425ZM21.1412 2.94299V23.0771C21.1412 23.6751 20.6548 24.1615 20.0572 24.1615H2.94245C2.3449 24.1615 1.85848 23.6751 1.85848 23.0771V2.94299C1.85848 2.34495 2.3449 1.85853 2.94245 1.85853H20.0572C20.6549 1.85853 21.1413 2.34495 21.1413 2.94299H21.1412Z" fill="white"/>
<path id="Vector_2" d="M16.7753 12.0807H11.6478C11.1346 12.0807 10.7185 12.4963 10.7185 13.01C10.7185 13.5236 11.1346 13.9393 11.6478 13.9393H16.7753C17.2885 13.9393 17.7046 13.5236 17.7046 13.01C17.7046 12.4963 17.2884 12.0807 16.7753 12.0807Z" fill="white"/>
<path id="Vector_3" d="M6.2245 13.9393H8.40929C8.92253 13.9393 9.33858 13.5236 9.33858 13.01C9.33858 12.4963 8.92253 12.0807 8.40929 12.0807H6.2245C5.71126 12.0807 5.29521 12.4963 5.29521 13.01C5.29521 13.5236 5.71136 13.9393 6.2245 13.9393Z" fill="white"/>
<path id="Vector_4" d="M16.7753 6.80261H6.22177C5.70853 6.80261 5.29248 7.21826 5.29248 7.7319C5.29248 8.24554 5.70853 8.66119 6.22177 8.66119H16.7753C17.2885 8.66119 17.7045 8.24554 17.7045 7.7319C17.7045 7.21826 17.2884 6.80261 16.7753 6.80261Z" fill="white"/>
<path id="Vector_5" d="M11.3519 17.3588H6.2245C5.71126 17.3588 5.29521 17.7745 5.29521 18.2881C5.29521 18.8017 5.71126 19.2174 6.2245 19.2174H11.3519C11.8652 19.2174 12.2812 18.8017 12.2812 18.2881C12.2812 17.7745 11.8651 17.3588 11.3519 17.3588Z" fill="white"/>
<path id="Vector_6" d="M16.7752 17.3588H14.5905C14.0772 17.3588 13.6612 17.7745 13.6612 18.2881C13.6612 18.8017 14.0772 19.2174 14.5905 19.2174H16.7752C17.2885 19.2174 17.7045 18.8017 17.7045 18.2881C17.7045 17.7745 17.2884 17.3588 16.7752 17.3588Z" fill="white"/>
</g>
</g>
</svg>
