<svg width="763" height="982" viewBox="0 0 763 982" fill="none" xmlns="http://www.w3.org/2000/svg">
<path d="M29.0166 645.603C-16.1079 661.98 -40.4361 718.355 -22.3131 747.175C-2.29053 779.002 122.91 774.167 137.276 766.407C151.642 758.646 34.1947 733.813 50.2211 704.529C68.0205 672.024 157.397 671.98 154.963 658.1C152.571 644.443 81.1766 626.675 29.0166 645.603Z" stroke="url(#paint0_linear_501_2)" stroke-opacity="0.03" stroke-width="1.5" stroke-miterlimit="10"/>
<path d="M14.8899 641.598C-38.0017 655.87 -60.9509 724.108 -37.6358 756.256C-11.2112 792.667 124.81 779.171 145.001 773.409C162.407 768.45 49.4193 735.053 62.9271 699.667C77.5887 661.222 158.2 654.978 152.177 646.058C145.705 636.496 76.9556 624.891 14.8899 641.598Z" stroke="url(#paint1_linear_501_2)" stroke-opacity="0.03" stroke-width="1.5" stroke-miterlimit="10"/>
<path d="M0.76386 637.602C-59.8103 649.725 -81.4228 729.853 -52.9579 765.328C-20.0748 806.36 125.627 784.06 152.727 780.421C172.426 777.745 64.7431 736.338 75.6197 694.788C87.228 650.474 160.818 637.477 149.392 634.079C140.865 628.058 72.9604 623.143 0.76386 637.602Z" stroke="url(#paint2_linear_501_2)" stroke-opacity="0.03" stroke-width="1.5" stroke-miterlimit="10"/>
<path d="M-13.3635 633.57C-81.5781 643.632 -101.854 735.562 -68.2391 774.382C-28.8413 819.945 128.37 795.388 160.493 787.405C180.614 782.401 80.1641 737.605 88.3532 689.918C96.9785 639.734 162.562 620.217 146.648 622.064C135.012 619.86 68.9498 621.448 -13.3635 633.57Z" stroke="url(#paint3_linear_501_2)" stroke-opacity="0.03" stroke-width="1.5" stroke-miterlimit="10"/>
<path d="M-27.4915 629.592C-103.318 637.62 -122.257 741.306 -83.6052 783.489C-37.6786 833.62 127.455 800.776 168.175 794.434C191.026 790.866 95.5424 738.934 101.016 685.083C106.644 629.03 165.741 605.24 143.819 610.084C129.776 613.179 64.9668 619.798 -27.4915 629.592Z" stroke="url(#paint4_linear_501_2)" stroke-opacity="0.03" stroke-width="1.5" stroke-miterlimit="10"/>
<path d="M-41.6026 625.587C-125.056 631.626 -142.644 747.033 -98.9265 792.561C-46.4289 847.249 126.795 796.61 175.916 801.481C201.369 803.987 111.022 740.271 113.723 680.249C116.537 618.344 167.895 587.561 141.034 598.122C124.319 604.652 61.0006 618.174 -41.6026 625.587Z" stroke="url(#paint5_linear_501_2)" stroke-opacity="0.03" stroke-width="1.5" stroke-miterlimit="10"/>
<path d="M-55.7289 621.591C-146.794 625.64 -163.018 752.715 -114.263 801.641C-55.1661 860.87 127.401 800.285 183.627 808.447C211.135 812.443 126.486 741.547 126.402 675.352C126.317 607.56 169.599 569.917 138.235 586.08C118.564 596.222 57.0333 616.569 -55.7289 621.591Z" stroke="url(#paint6_linear_501_2)" stroke-opacity="0.03" stroke-width="1.5" stroke-miterlimit="10"/>
<path d="M-69.8585 617.586C-168.536 619.673 -183.352 758.451 -129.588 810.722C-63.9348 874.491 128.158 803.827 191.349 815.458C220.982 820.909 141.989 742.832 139.105 670.49C136.164 596.847 171.186 552.416 135.446 574.083C112.708 587.855 53.0346 614.99 -69.8585 617.586Z" stroke="url(#paint7_linear_501_2)" stroke-opacity="0.03" stroke-width="1.5" stroke-miterlimit="10"/>
<path d="M-83.9841 613.58C-190.274 613.714 -203.753 764.159 -144.91 819.802C-72.6713 888.112 129.046 807.314 199.075 822.478C230.903 829.373 157.511 744.143 151.798 665.638C146.015 586.125 172.749 534.995 132.662 562.085C106.8 579.542 49.0821 613.42 -83.9841 613.58Z" stroke="url(#paint8_linear_501_2)" stroke-opacity="0.03" stroke-width="1.5" stroke-miterlimit="10"/>
<path d="M-98.1114 609.584C-212.084 607.8 -224.114 769.859 -160.233 828.874C-81.4377 901.715 130.044 810.704 206.8 829.472C240.879 837.803 173.03 745.427 164.489 660.768C155.878 575.385 174.339 517.592 129.861 550.07C100.876 571.255 45.0997 611.868 -98.1114 609.584Z" stroke="url(#paint9_linear_501_2)" stroke-opacity="0.03" stroke-width="1.5" stroke-miterlimit="10"/>
<path d="M-112.238 605.579C-233.781 601.824 -244.502 775.559 -175.556 837.955C-90.1191 915.327 131.184 814.085 214.525 836.483C250.897 846.241 188.578 746.721 177.195 655.906C165.756 564.645 175.873 500.234 127.075 538.073C94.9381 562.986 41.1038 610.325 -112.238 605.579Z" stroke="url(#paint10_linear_501_2)" stroke-opacity="0.03" stroke-width="1.5" stroke-miterlimit="10"/>
<path d="M-126.366 601.574C-255.534 595.883 -264.807 781.259 -190.88 847.035C-98.8295 928.93 132.267 817.438 222.249 843.467C260.929 854.671 204.112 748.023 189.886 651.018C175.633 553.888 177.434 482.866 124.289 526.048C89.0138 554.726 37.1071 608.781 -126.366 601.574Z" stroke="url(#paint11_linear_501_2)" stroke-opacity="0.03" stroke-width="1.5" stroke-miterlimit="10"/>
<path d="M-140.491 597.578C-277.3 589.951 -285.151 786.994 -206.201 856.107C-107.538 942.533 133.465 820.783 229.989 850.496C271.019 863.127 219.676 749.298 202.594 646.174C185.512 543.05 178.997 465.553 121.505 514.042C83.0776 546.475 33.1127 607.256 -140.491 597.578Z" stroke="url(#paint12_linear_501_2)" stroke-opacity="0.03" stroke-width="1.5" stroke-miterlimit="10"/>
<path d="M-154.618 593.573C-299.067 584.019 -305.497 792.65 -221.538 865.187C-116.247 956.171 134.717 824.155 237.7 857.507C281.108 871.574 235.224 750.583 215.286 641.313C195.404 532.426 180.573 448.239 118.705 502.062C77.1401 538.233 29.1169 605.722 -154.618 593.573Z" stroke="url(#paint13_linear_501_2)" stroke-opacity="0.03" stroke-width="1.5" stroke-miterlimit="10"/>
<path d="M-168.747 589.568C-320.837 578.088 -325.621 798.243 -236.821 874.268C-124.636 969.605 136.051 827.438 245.465 864.51C291.251 880.021 250.826 751.868 228.017 636.451C205.335 521.687 182.189 430.916 115.959 490.056C71.1998 529.991 25.0903 604.206 -168.747 589.568Z" stroke="url(#paint14_linear_501_2)" stroke-opacity="0.03" stroke-width="1.5" stroke-miterlimit="10"/>
<path d="M-182.872 585.572C-342.602 572.165 -345.979 803.943 -252.184 883.331C-133.414 983.235 137.305 830.703 253.149 871.503C301.341 888.451 266.347 753.134 240.668 631.554C215.201 510.902 183.725 413.576 113.132 478.014C65.2637 521.749 21.0818 602.68 -182.872 585.572Z" stroke="url(#paint15_linear_501_2)" stroke-opacity="0.03" stroke-width="1.5" stroke-miterlimit="10"/>
<path d="M-196.999 581.566C-364.44 566.242 -366.354 809.651 -267.507 892.42C-142.152 996.784 138.628 834.074 260.874 878.523C311.528 896.925 282.247 754.41 253.36 626.72C225.43 500.162 185.301 396.298 110.346 466.052C59.326 513.516 17.0577 601.164 -196.999 581.566Z" stroke="url(#paint16_linear_501_2)" stroke-opacity="0.03" stroke-width="1.5" stroke-miterlimit="10"/>
<path d="M-211.125 577.562C-386.206 560.516 -386.727 815.36 -282.829 901.501C-150.889 1010.45 139.98 837.393 268.614 885.534C321.618 905.372 297.74 755.694 266.067 621.859C235.266 489.423 186.877 379.002 107.547 454.046C53.3889 505.283 12.978 599.898 -211.125 577.562Z" stroke="url(#paint17_linear_501_2)" stroke-opacity="0.03" stroke-width="1.5" stroke-miterlimit="10"/>
<path d="M-225.255 573.565C-407.976 554.548 -407.076 821.06 -298.155 910.581C-159.643 1024.06 141.342 840.702 276.336 892.545C331.76 913.828 313.243 756.961 278.756 616.997C245.099 478.683 188.465 361.697 104.758 442.049C47.4064 497.094 8.9654 598.327 -225.255 573.565Z" stroke="url(#paint18_linear_501_2)" stroke-opacity="0.03" stroke-width="1.5" stroke-miterlimit="10"/>
<path d="M-239.381 569.56C-429.743 548.581 -427.463 826.769 -313.477 919.653C-168.381 1037.65 142.736 844.02 284.061 899.547C341.92 922.285 328.82 758.272 291.448 612.162C254.865 467.97 189.816 344.33 101.973 430.069C41.3426 488.754 4.95586 596.749 -239.381 569.56Z" stroke="url(#paint19_linear_501_2)" stroke-opacity="0.03" stroke-width="1.5" stroke-miterlimit="10"/>
<path d="M-253.506 565.555C-451.509 542.586 -447.878 832.487 -328.798 928.734C-177.117 1051.29 144.13 847.338 291.788 906.523C352.095 930.714 344.257 759.521 304.156 607.238C264.772 457.195 191.52 327.061 99.1886 418.036C35.4908 480.565 0.975453 595.214 -253.506 565.555Z" stroke="url(#paint20_linear_501_2)" stroke-opacity="0.03" stroke-width="1.5" stroke-miterlimit="10"/>
<path d="M96.3876 406.038C29.6364 472.368 -3.07781 593.6 -267.634 561.559C-473.291 536.645 -468.211 838.178 -344.136 937.814C-185.856 1064.91 145.522 850.657 299.512 913.561C424.037 964.44 291.59 212.055 96.3876 406.038Z" stroke="url(#paint21_linear_501_2)" stroke-opacity="0.03" stroke-width="1.5" stroke-miterlimit="10"/>
<g filter="url(#filter0_f_501_2)">
<ellipse cx="276.536" cy="210.885" rx="258.244" ry="169.181" transform="rotate(113.069 276.536 210.885)" fill="#2A73E2" fill-opacity="0.09"/>
</g>
<g filter="url(#filter1_f_501_2)">
<ellipse cx="9.81676" cy="440.12" rx="250.076" ry="187.849" transform="rotate(113.069 9.81676 440.12)" fill="#73E9ED" fill-opacity="0.09"/>
</g>
<defs>
<filter id="filter0_f_501_2" x="-209.138" y="-335.846" width="971.349" height="1093.46" filterUnits="userSpaceOnUse" color-interpolation-filters="sRGB">
<feFlood flood-opacity="0" result="BackgroundImageFix"/>
<feBlend mode="normal" in="SourceGraphic" in2="BackgroundImageFix" result="shape"/>
<feGaussianBlur stdDeviation="150" result="effect1_foregroundBlur_501_2"/>
</filter>
<filter id="filter1_f_501_2" x="-488.892" y="-101.511" width="997.417" height="1083.26" filterUnits="userSpaceOnUse" color-interpolation-filters="sRGB">
<feFlood flood-opacity="0" result="BackgroundImageFix"/>
<feBlend mode="normal" in="SourceGraphic" in2="BackgroundImageFix" result="shape"/>
<feGaussianBlur stdDeviation="150" result="effect1_foregroundBlur_501_2"/>
</filter>
<linearGradient id="paint0_linear_501_2" x1="63.3331" y1="637.363" x2="63.3331" y2="772.156" gradientUnits="userSpaceOnUse">
<stop stop-color="white" stop-opacity="0"/>
<stop offset="0.302083" stop-color="white"/>
<stop offset="0.880208" stop-color="white" stop-opacity="0"/>
</linearGradient>
<linearGradient id="paint1_linear_501_2" x1="52.8848" y1="633.143" x2="52.8848" y2="780.678" gradientUnits="userSpaceOnUse">
<stop stop-color="white" stop-opacity="0"/>
<stop offset="0.302083" stop-color="white"/>
<stop offset="0.880208" stop-color="white" stop-opacity="0"/>
</linearGradient>
<linearGradient id="paint2_linear_501_2" x1="44.8897" y1="628.152" x2="44.8897" y2="789.73" gradientUnits="userSpaceOnUse">
<stop stop-color="white" stop-opacity="0"/>
<stop offset="0.302083" stop-color="white"/>
<stop offset="0.880208" stop-color="white" stop-opacity="0"/>
</linearGradient>
<linearGradient id="paint3_linear_501_2" x1="39.5069" y1="621.226" x2="39.5069" y2="801.194" gradientUnits="userSpaceOnUse">
<stop stop-color="white" stop-opacity="0"/>
<stop offset="0.302083" stop-color="white"/>
<stop offset="0.880208" stop-color="white" stop-opacity="0"/>
</linearGradient>
<linearGradient id="paint4_linear_501_2" x1="34.3133" y1="609.472" x2="34.3133" y2="810.856" gradientUnits="userSpaceOnUse">
<stop stop-color="white" stop-opacity="0"/>
<stop offset="0.302083" stop-color="white"/>
<stop offset="0.880208" stop-color="white" stop-opacity="0"/>
</linearGradient>
<linearGradient id="paint5_linear_501_2" x1="29.1679" y1="596.077" x2="29.1679" y2="818.178" gradientUnits="userSpaceOnUse">
<stop stop-color="white" stop-opacity="0"/>
<stop offset="0.302083" stop-color="white"/>
<stop offset="0.880208" stop-color="white" stop-opacity="0"/>
</linearGradient>
<linearGradient id="paint6_linear_501_2" x1="23.9629" y1="582.354" x2="23.9629" y2="827.917" gradientUnits="userSpaceOnUse">
<stop stop-color="white" stop-opacity="0"/>
<stop offset="0.302083" stop-color="white"/>
<stop offset="0.880208" stop-color="white" stop-opacity="0"/>
</linearGradient>
<linearGradient id="paint7_linear_501_2" x1="18.8267" y1="568.581" x2="18.8267" y2="837.744" gradientUnits="userSpaceOnUse">
<stop stop-color="white" stop-opacity="0"/>
<stop offset="0.302083" stop-color="white"/>
<stop offset="0.880208" stop-color="white" stop-opacity="0"/>
</linearGradient>
<linearGradient id="paint8_linear_501_2" x1="13.7502" y1="554.766" x2="13.7502" y2="847.647" gradientUnits="userSpaceOnUse">
<stop stop-color="white" stop-opacity="0"/>
<stop offset="0.302083" stop-color="white"/>
<stop offset="0.880208" stop-color="white" stop-opacity="0"/>
</linearGradient>
<linearGradient id="paint9_linear_501_2" x1="8.75522" y1="540.902" x2="8.75522" y2="857.585" gradientUnits="userSpaceOnUse">
<stop stop-color="white" stop-opacity="0"/>
<stop offset="0.302083" stop-color="white"/>
<stop offset="0.880208" stop-color="white" stop-opacity="0"/>
</linearGradient>
<linearGradient id="paint10_linear_501_2" x1="3.86827" y1="527.036" x2="3.86827" y2="867.581" gradientUnits="userSpaceOnUse">
<stop stop-color="white" stop-opacity="0"/>
<stop offset="0.302083" stop-color="white"/>
<stop offset="0.880208" stop-color="white" stop-opacity="0"/>
</linearGradient>
<linearGradient id="paint11_linear_501_2" x1="-0.905975" y1="513.131" x2="-0.905975" y2="877.608" gradientUnits="userSpaceOnUse">
<stop stop-color="white" stop-opacity="0"/>
<stop offset="0.302083" stop-color="white"/>
<stop offset="0.880208" stop-color="white" stop-opacity="0"/>
</linearGradient>
<linearGradient id="paint12_linear_501_2" x1="-5.55893" y1="499.232" x2="-5.55893" y2="887.663" gradientUnits="userSpaceOnUse">
<stop stop-color="white" stop-opacity="0"/>
<stop offset="0.302083" stop-color="white"/>
<stop offset="0.880208" stop-color="white" stop-opacity="0"/>
</linearGradient>
<linearGradient id="paint13_linear_501_2" x1="-10.097" y1="485.358" x2="-10.097" y2="897.766" gradientUnits="userSpaceOnUse">
<stop stop-color="white" stop-opacity="0"/>
<stop offset="0.302083" stop-color="white"/>
<stop offset="0.880208" stop-color="white" stop-opacity="0"/>
</linearGradient>
<linearGradient id="paint14_linear_501_2" x1="-14.4238" y1="471.447" x2="-14.4238" y2="907.79" gradientUnits="userSpaceOnUse">
<stop stop-color="white" stop-opacity="0"/>
<stop offset="0.302083" stop-color="white"/>
<stop offset="0.880208" stop-color="white" stop-opacity="0"/>
</linearGradient>
<linearGradient id="paint15_linear_501_2" x1="-18.7028" y1="457.499" x2="-18.7028" y2="917.905" gradientUnits="userSpaceOnUse">
<stop stop-color="white" stop-opacity="0"/>
<stop offset="0.302083" stop-color="white"/>
<stop offset="0.880208" stop-color="white" stop-opacity="0"/>
</linearGradient>
<linearGradient id="paint16_linear_501_2" x1="-22.772" y1="443.614" x2="-22.772" y2="928.028" gradientUnits="userSpaceOnUse">
<stop stop-color="white" stop-opacity="0"/>
<stop offset="0.302083" stop-color="white"/>
<stop offset="0.880208" stop-color="white" stop-opacity="0"/>
</linearGradient>
<linearGradient id="paint17_linear_501_2" x1="-26.7648" y1="429.697" x2="-26.7648" y2="938.201" gradientUnits="userSpaceOnUse">
<stop stop-color="white" stop-opacity="0"/>
<stop offset="0.302083" stop-color="white"/>
<stop offset="0.880208" stop-color="white" stop-opacity="0"/>
</linearGradient>
<linearGradient id="paint18_linear_501_2" x1="-30.6136" y1="415.776" x2="-30.6136" y2="948.36" gradientUnits="userSpaceOnUse">
<stop stop-color="white" stop-opacity="0"/>
<stop offset="0.302083" stop-color="white"/>
<stop offset="0.880208" stop-color="white" stop-opacity="0"/>
</linearGradient>
<linearGradient id="paint19_linear_501_2" x1="-34.3336" y1="401.839" x2="-34.3336" y2="958.515" gradientUnits="userSpaceOnUse">
<stop stop-color="white" stop-opacity="0"/>
<stop offset="0.302083" stop-color="white"/>
<stop offset="0.880208" stop-color="white" stop-opacity="0"/>
</linearGradient>
<linearGradient id="paint20_linear_501_2" x1="-37.9742" y1="387.905" x2="-37.9742" y2="968.703" gradientUnits="userSpaceOnUse">
<stop stop-color="white" stop-opacity="0"/>
<stop offset="0.302083" stop-color="white"/>
<stop offset="0.880208" stop-color="white" stop-opacity="0"/>
</linearGradient>
<linearGradient id="paint21_linear_501_2" x1="-41.5" y1="374" x2="-41.5" y2="978.892" gradientUnits="userSpaceOnUse">
<stop stop-color="white" stop-opacity="0"/>
<stop offset="0.302083" stop-color="white"/>
<stop offset="0.880208" stop-color="white" stop-opacity="0"/>
</linearGradient>
</defs>
</svg>
