<svg width="6" height="12" viewBox="0 0 6 12" fill="none" xmlns="http://www.w3.org/2000/svg">
<path d="M0.210541 11.7744C0.338218 11.9188 0.511429 12 0.692112 12C0.872739 12 1.04601 11.9188 1.17368 11.7744L5.80037 6.55074C5.92821 6.40648 6 6.21071 6 6.00663C6 5.80255 5.92821 5.60678 5.80037 5.46252L1.17368 0.238811C1.04711 0.0886078 0.872242 0.002491 0.688737 5.53131e-05C0.505232 -0.00244808 0.328591 0.0789127 0.198914 0.225673C0.0692434 0.372435 -0.00248671 0.572206 6.58035e-05 0.779542C0.00255823 0.986878 0.0791082 1.18428 0.212271 1.32703L4.3574 6.00664L0.212271 10.6863C0.0842071 10.8303 0.0120902 11.0259 0.0117497 11.23C0.0114727 11.4341 0.0829682 11.6299 0.210541 11.7744Z" fill="white"/>
</svg>
